<svg xmlns="http://www.w3.org/2000/svg" viewBox="0 0 1703.87 1703.87"><g id="Layer_2" data-name="Layer 2"><g id="Layer_1-2" data-name="Layer 1"><circle cx="851.93" cy="851.93" r="851.93" fill="#e32636"/><path d="M195.29,604l64.34,163.06L323.7,604h26.05V790H332V629.26h-.52L268,790H251.28l-63.8-160.71H187V790H169.23V604Z" fill="#fff"/><path d="M401.58,604V719.13q0,16.15,3.63,27.49a46.37,46.37,0,0,0,10.69,18.49,41.51,41.51,0,0,0,17.19,10.42A75.08,75.08,0,0,0,456,778.78a76,76,0,0,0,23.19-3.25,41.51,41.51,0,0,0,17.19-10.42,46.24,46.24,0,0,0,10.68-18.49q3.63-11.36,3.64-27.49V604h17.71V723a90.48,90.48,0,0,1-4,27.21,59.85,59.85,0,0,1-12.75,22.53A60.47,60.47,0,0,1,489.22,788q-13.67,5.6-33.21,5.61-19.27,0-32.94-5.61a60.55,60.55,0,0,1-22.41-15.24,59.63,59.63,0,0,1-12.77-22.53,90.8,90.8,0,0,1-4-27.21V604Z" fill="#fff"/><path d="M574,752.75a39.41,39.41,0,0,0,12.89,15.36,54.16,54.16,0,0,0,19.41,8.19,110.19,110.19,0,0,0,24,2.48,68.28,68.28,0,0,0,15.9-2.08,55.28,55.28,0,0,0,16-6.64,41.33,41.33,0,0,0,12.38-11.72q4.92-7.17,4.93-17.33A25.37,25.37,0,0,0,676,727.46a32.49,32.49,0,0,0-9.1-9.63,54.22,54.22,0,0,0-12.38-6.38,120.86,120.86,0,0,0-13.28-4l-41.42-10.16A122.74,122.74,0,0,1,584,692a44.64,44.64,0,0,1-13.41-8.33A39.44,39.44,0,0,1,561.37,671q-3.51-7.56-3.51-18.5a59.23,59.23,0,0,1,2.59-15.88,44.15,44.15,0,0,1,9.78-17.21q7.15-8,19.66-13.66t32-5.6a93.9,93.9,0,0,1,26.31,3.64,65.32,65.32,0,0,1,21.87,10.94,54.49,54.49,0,0,1,15,18.11q5.61,10.82,5.61,25.13H673a43.08,43.08,0,0,0-4.82-18.62A41.27,41.27,0,0,0,657,626a49.1,49.1,0,0,0-15.88-8.08,64.38,64.38,0,0,0-18.9-2.74,78.1,78.1,0,0,0-17.58,2,44.52,44.52,0,0,0-14.84,6.24,32.41,32.41,0,0,0-10.29,11.34q-3.9,7-3.9,17.45a27,27,0,0,0,2.21,11.33,24,24,0,0,0,6.11,8.21,33.36,33.36,0,0,0,9,5.48,70.7,70.7,0,0,0,10.81,3.37L649,691.79a131.31,131.31,0,0,1,18.62,6.38A61.54,61.54,0,0,1,683,707.54a39.63,39.63,0,0,1,10.42,13.67q3.8,8.09,3.79,19.54a72.17,72.17,0,0,1-.66,8.34,42.54,42.54,0,0,1-3.13,11.07,55.27,55.27,0,0,1-7,11.85,44.12,44.12,0,0,1-12.5,10.81,73.13,73.13,0,0,1-19.68,7.82q-11.72,3-28.13,3a117.08,117.08,0,0,1-30.47-3.79,65.13,65.13,0,0,1-24-11.59,50.85,50.85,0,0,1-15.24-20q-5.32-12.26-4.56-29.44h17.72Q569.31,743.1,574,752.75Z" fill="#fff"/><path d="M852.7,604v15.12H787.84V790H770.12V619.12H705.54V604Z" fill="#fff"/><path d="M960.29,604v80.75h110.44V604h17.7V790h-17.7V699.85H960.29V790H942.56V604Z" fill="#fff"/><path d="M1200.16,604l72.93,186h-19l-22.66-57.82h-84.65L1124.37,790h-18.75l74.74-186Zm25.27,113-36-95.33-37.25,95.33Z" fill="#fff"/><path d="M1264.77,604l60.42,166.44h.52L1385.63,604h18.73l-69,186h-20.56L1246,604Z" fill="#fff"/><path d="M1549.18,604v15.12h-110.7v67.19h103.69v15.12H1438.48v73.45h112V790h-129.7V604Z" fill="#fff"/><path d="M1573.15,608.11H1562.8v-3.45h24.78v3.45h-10.35v28.32h-4.08Zm20.07-3.45h6.55L1610,630.41l10-25.75h6.57v31.77h-4.1V608.35h-.15L1611,636.43h-2.31l-11.28-28.08h-.15v28.08h-4.08Z" fill="#fff"/><path d="M232.44,861v32.06h.93a94.6,94.6,0,0,1,31.83-28.39q18.63-10.06,42.67-10.08a100.64,100.64,0,0,1,42.2,8.71q19.11,8.7,29,30.68,10.85-15.57,29.46-27.49t44.1-11.9a133.47,133.47,0,0,1,35.84,4.58,72.76,72.76,0,0,1,28.28,14.67q11.79,10.06,18.4,26.32t6.6,39.16v158.51H474.81V963.61c0-7.93-.34-15.41-.95-22.44a46.82,46.82,0,0,0-5.19-18.32,31.17,31.17,0,0,0-12.5-12.38q-8.25-4.56-22.4-4.58c-9.42,0-17.06,1.76-22.87,5.28a38.66,38.66,0,0,0-13.67,13.73,54,54,0,0,0-6.6,19.25A143.32,143.32,0,0,0,389,965.9v131.93H322V965c0-7-.16-14-.47-20.84a57.06,57.06,0,0,0-4-19,29.41,29.41,0,0,0-11.79-14q-8.25-5.28-24.28-5.28A51.4,51.4,0,0,0,269,908a42,42,0,0,0-15.08,7.78q-7.33,5.73-12.51,16.5t-5.17,28.16v137.43h-67V861Z" fill="#fff"/><path d="M648,1041q15.11,14.19,43.39,14.19,20.27,0,34.9-9.85t17.91-20.84h59q-14.15,42.6-43.38,60.92t-70.73,18.32q-28.79,0-51.88-8.92a107.94,107.94,0,0,1-39.13-25.43,113.31,113.31,0,0,1-24.76-39.4q-8.73-22.87-8.73-50.38a134.82,134.82,0,0,1,9-49.46A115.48,115.48,0,0,1,599,890.55a119.85,119.85,0,0,1,39.37-26.33q22.88-9.65,50.7-9.63,31.13,0,54.23,11.67a107.62,107.62,0,0,1,38,31.39,127.62,127.62,0,0,1,21.46,44.89,163.33,163.33,0,0,1,4.72,52.68H631.54Q633,1026.81,648,1041Zm75.7-124.6q-12-12.84-36.55-12.83-16,0-26.64,5.28a50.51,50.51,0,0,0-17,13,47.56,47.56,0,0,0-9,16.49A73.94,73.94,0,0,0,631.54,954H740.48Q735.74,929.25,723.74,916.43Z" fill="#fff"/><path d="M892.35,861v33h1.41q12.74-20.6,33-30a97.91,97.91,0,0,1,41.5-9.39q26.88,0,44.09,7.11t27.11,19.69q9.9,12.6,13.91,30.69a185.7,185.7,0,0,1,4,40.08v145.67h-67V964.07q0-29.33-9.43-43.75t-33.49-14.43q-27.35,0-39.6,15.8t-12.26,52v124.14h-67V861Z" fill="#fff"/><path d="M1246.59,1097.83v-33h-1.41q-12.73,20.64-33,29.78a100,100,0,0,1-41.5,9.15q-26.87,0-44.08-6.87t-27.13-19.46c-6.58-8.39-11.24-18.63-13.9-30.7a185.57,185.57,0,0,1-4-40.06V861h67V994.76q0,29.34,9.43,43.75t33.49,14.42q27.32,0,39.6-15.8t12.26-52V861h67v236.83Z" fill="#fff"/><path d="M1397.91,1039a38.64,38.64,0,0,0,11.56,12.35,50.36,50.36,0,0,0,16.28,7.11,78.51,78.51,0,0,0,19.09,2.27,73.52,73.52,0,0,0,14.86-1.58,51.14,51.14,0,0,0,14.14-5.06,31.58,31.58,0,0,0,10.6-9.14q4.26-5.73,4.25-14.43,0-14.67-20-22t-55.88-14.66q-14.61-3.21-28.53-7.55a98.54,98.54,0,0,1-24.75-11.46A56.14,56.14,0,0,1,1342.05,957c-4.4-7.17-6.6-15.93-6.6-26.34,0-15.27,3-27.76,9.2-37.56a66.83,66.83,0,0,1,24.28-23.13,108.91,108.91,0,0,1,34-11.9,215.11,215.11,0,0,1,38.65-3.44,198.16,198.16,0,0,1,38.44,3.67,103.51,103.51,0,0,1,33.25,12.37,75.39,75.39,0,0,1,24.28,23.13q9.68,14.41,11.55,36.42h-63.66q-1.42-18.76-14.62-25.44t-31.11-6.63c-3.77,0-7.85.23-12.27.67a42.13,42.13,0,0,0-12,3,24.67,24.67,0,0,0-9.19,6.64c-2.51,2.9-3.77,6.8-3.77,11.67a17.58,17.58,0,0,0,6.6,14.2,51,51,0,0,0,17.21,8.93,222,222,0,0,0,24.28,6.2q13.7,2.75,27.82,5.94,14.61,3.23,28.52,7.78a96,96,0,0,1,24.77,12.14,59.62,59.62,0,0,1,17.44,18.8c4.4,7.49,6.62,16.71,6.62,27.72q0,23.34-9.68,39.16a76.19,76.19,0,0,1-25.24,25.41,104.83,104.83,0,0,1-35.6,13.51,211.92,211.92,0,0,1-40.78,3.89,207.41,207.41,0,0,1-41.49-4.12,111.45,111.45,0,0,1-36.08-13.74,79.46,79.46,0,0,1-25.93-25.44q-10.14-15.77-11.09-39.61h63.67Q1393.45,1031.42,1397.91,1039Z" fill="#fff"/></g></g></svg>